<svg width="8" height="10" viewBox="0 0 8 10" xmlns="http://www.w3.org/2000/svg"><title>foursqure</title><path d="M6.24 1.444L6.016 2.61c-.027.126-.185.26-.333.26H3.606c-.234 0-.401.16-.401.393v.254c0 .234.169.4.402.4H5.37c.164 0 .327.181.29.356-.035.177-.203 1.051-.223 1.148-.02.096-.13.263-.327.263H3.671c-.262 0-.341.033-.516.251-.175.219-1.753 2.111-1.753 2.111-.015.019-.03.013-.03-.006V1.426c0-.15.129-.325.323-.325h4.281c.156 0 .304.148.264.342zm.187 4.575c.06-.24.728-3.66.95-4.744l-.95 4.744zM6.556 0H1.22C.486 0 .27.554.27.902v8.475c0 .392.21.537.329.585.118.049.445.09.642-.137 0 0 2.518-2.922 2.56-2.965.067-.066.067-.066.132-.066h1.63c.684 0 .793-.487.866-.775.06-.24.727-3.66.95-4.743C7.549.446 7.339 0 6.555 0z" fill="#CE6261" fill-rule="evenodd"/></svg>