<svg width="9" height="12" viewBox="0 0 9 12" xmlns="http://www.w3.org/2000/svg"><title>location</title><path d="M1 4.168C1 5.917 2.445 8.005 4.333 11c1.888-2.995 3.334-5.083 3.334-6.832C7.667 2.418 6.083 1 4.333 1 2.584 1 1 2.418 1 4.168zm7.167 0c0 1.59-.35 2.242-3.41 7.099l-.424.67-.423-.67C.85 6.41.5 5.759.5 4.167.5 2.164 2.284.5 4.333.5c2.05 0 3.834 1.663 3.834 3.668zm-2.584.165a1.25 1.25 0 1 0-2.5 0 1.25 1.25 0 0 0 2.5 0zm-3 0a1.75 1.75 0 1 1 3.5 0 1.75 1.75 0 0 1-3.5 0z" fill="#CE6261" fill-rule="evenodd"/></svg>