<svg width="9" height="12" viewBox="0 0 9 12" xmlns="http://www.w3.org/2000/svg"><title>phone</title><path d="M6.2 7.594l-.86.421c-.934.453-2.834-3.258-1.921-3.747l.868-.428L2.83 1l-.877.433c-3 1.565 1.764 10.826 4.833 9.423.05-.023.876-.429.88-.43L6.198 7.593zm1.91 2.601l.234.45-.454.228-.895.438C3.341 12.98-1.86 2.857 1.733.985L2.61.552l.442-.218.224.438 1.456 2.84.232.453-.456.224-.853.42c-.336.18 1.12 3.024 1.477 2.851l.43-.21.414-.203.44-.22.227.437 1.467 2.831z" fill="#CE6261" fill-rule="evenodd"/></svg>