<svg xmlns="http://www.w3.org/2000/svg" viewBox="0 0 841.9 595.3"><path fill-rule="evenodd" clip-rule="evenodd" fill="#E15555" d="M441.2 85C391 89.1 335 112.8 300.6 149.4c-19.3 20.5-38 49.5-40.5 82.2-2.6 34.5 9 58.2 25 75.1 22.6 23.8 53.1 34.7 100.1 38.1 17-28.8-.5-50.4-15.5-72.7-9.3-13.8-17.9-28.6-22.6-45.3-14.2-50.1 24.7-95.7 73.9-95.4 42.2.3 76.3 30.6 76.3 73.9 0 28.8-15.3 52.9-27.4 70.3-10.9 15.7-27.2 31.7-19.1 58.4 57-19 111.5-57.8 127.5-116.8C600.6 135 524.2 78.2 441.2 85z"/><path fill-rule="evenodd" clip-rule="evenodd" fill="#E15555" d="M482.9 187.5c-4.6-29.1-35.6-54.8-71.5-50.1-34.3 4.6-59.9 36.1-53.6 76.3 3.5 22 20.5 41.4 47.7 44.1 15.5-13.1-3.8-25.7-6-40.5-2.4-16.6 1.8-31.6 20.2-32.2 18.2-.6 24.2 17 21.5 33.4-2.6 15.3-21.7 26.9-6 39.3 35.1-4.5 53.6-33 47.7-70.3z"/><g><path fill="#E15555" d="M230.6 452l-15.1-20.5h-7.6V452h-11.7v-56.9h23.1c4.2 0 7.7.2 10.6.7 2.8.4 5.1 1.3 6.8 2.6 1.7 1.3 2.9 3.1 3.7 5.5.7 2.4 1.1 5.5 1.1 9.5 0 3.1-.2 5.8-.7 7.9-.4 2.1-1.2 3.9-2.2 5.2-1 1.4-2.4 2.4-4.1 3.1-1.7.7-3.8 1.3-6.2 1.6L244 452h-13.4zm-11.2-30c1.8 0 3.4-.1 4.7-.2 1.3-.1 2.3-.5 3.1-1.1.8-.6 1.4-1.5 1.7-2.6.3-1.2.5-2.8.5-4.8 0-2.1-.2-3.8-.5-5-.4-1.2-.9-2.1-1.7-2.6-.8-.6-1.8-.9-3.1-1-1.3-.1-2.8-.2-4.7-.2h-11.5V422h11.5zM262.2 452v-56.9h42.5l-.8 9.5h-30v13.2h23.3v9.5h-23.3v15.1h30.8l-.8 9.6zM319 452v-56.9h20.4c4.3 0 8.2.3 11.8.8 3.5.6 6.6 1.8 9 3.8 2.5 1.9 4.4 4.8 5.8 8.5 1.3 3.7 2 8.7 2 15 0 6.3-.6 11.4-1.8 15.2-1.2 3.8-3 6.7-5.4 8.7-2.4 2-5.3 3.3-8.7 3.9-3.4.6-7.4.9-11.9.9H319zm20.4-9.6c3.1 0 5.8-.2 7.9-.6 2.2-.4 3.9-1.2 5.2-2.6 1.3-1.3 2.2-3.3 2.8-5.9.6-2.6.8-6 .8-10.3 0-4.5-.4-8-1.3-10.5s-2-4.4-3.6-5.5c-1.5-1.2-3.3-1.9-5.4-2.1-2.1-.2-4.3-.4-6.7-.4h-8.5v37.9h8.8z"/><path fill="#333" d="M385.8 452v-56.9h11.6v47.3H426l-.9 9.6zM439.6 395.1h11.7V452h-11.7zM509.3 427.3h-12.9l.9-9.5h23.3V448c-1.2.7-2.7 1.4-4.4 2-1.7.6-3.6 1.1-5.7 1.6-2 .4-4.2.8-6.4 1-2.2.2-4.4.4-6.5.4-4.5 0-8.5-.4-11.9-1.1-3.5-.7-6.4-2.1-8.7-4.2-2.3-2.1-4.1-5.2-5.3-9.1-1.2-3.9-1.8-9-1.8-15.3 0-6.3.7-11.3 2-15.2 1.4-3.8 3.3-6.8 5.8-8.9 2.5-2.1 5.5-3.5 9-4.2 3.5-.7 7.5-1.1 11.8-1.1 4.2 0 8 .3 11.4 1 3.5.7 6.5 1.6 9 2.7l-2.9 9.1c-.8-.3-1.9-.6-3.1-1-1.2-.4-2.6-.8-4.1-1.1-1.5-.4-3.1-.6-4.9-.9-1.7-.2-3.5-.3-5.2-.3-2.4 0-4.7.2-6.7.5-2.1.3-3.9 1.1-5.4 2.4-1.5 1.3-2.7 3.3-3.5 5.9-.9 2.6-1.3 6.2-1.3 10.9 0 4.3.3 7.8.9 10.5.6 2.7 1.5 4.7 2.9 6.2 1.3 1.4 3.1 2.4 5.3 2.9 2.2.5 4.9.8 8.2.8 1.8 0 3.7-.2 5.6-.5 1.9-.3 3.5-.7 4.7-1.1v-14.6zM571.9 452v-25.4h-23.1V452h-11.6v-56.9h11.6v21.8h23.1v-21.8h11.6V452zM615.4 452v-47.4h-17.5l.9-9.5h46.9l-.9 9.5h-17.7V452zM263.8 487.2c-.6-.2-1.4-.5-2.4-.7-1-.3-2.1-.5-3.4-.8-1.2-.2-2.5-.4-3.9-.6-1.4-.2-2.7-.2-4-.2-3.9 0-6.9.6-8.9 1.7s-3 3.2-3 6.2c0 1.4.1 2.5.2 3.2.2.7.5 1.4 1.1 1.8.6.5 1.4.8 2.5 1.1 1.1.3 2.6.6 4.6 1 2.5.5 4.9 1 7.4 1.4 2.5.4 4.8 1 6.8 1.9 2 .8 3.7 1.9 5 3.4 1.3 1.5 2 3.5 2 6 0 2.6-.4 4.6-1.3 6.2-.8 1.6-2 2.9-3.5 3.8-1.5.9-3.3 1.6-5.4 1.9-2.1.3-4.4.5-6.9.5-1.5 0-3.2-.1-4.9-.2-1.7-.2-3.4-.4-5.1-.7-1.6-.3-3.2-.7-4.7-1-1.5-.4-2.7-.8-3.6-1.3.3-.7.7-1.3 1-1.9.3-.6.7-1.2 1.1-1.8.7.3 1.5.6 2.6.9 1.1.4 2.3.7 3.8 1 1.5.3 3.1.6 4.8.8 1.8.2 3.6.3 5.6.3 1.8 0 3.5 0 5-.1s2.7-.4 3.8-.9c1-.5 1.8-1.4 2.4-2.5.6-1.1.8-2.7.8-4.8 0-1.3-.2-2.4-.5-3.1-.3-.8-.8-1.4-1.5-1.8-.7-.5-1.7-.8-2.8-1.1-1.2-.3-2.7-.6-4.4-.9-3.7-.7-6.9-1.3-9.5-1.9-2.6-.5-4.7-1.3-6.3-2.1-1.6-.9-2.8-2-3.5-3.4-.7-1.4-1.1-3.4-1.1-5.8 0-1.9.4-3.6 1.2-5.1.8-1.5 1.9-2.7 3.4-3.6 1.4-1 3.1-1.7 5-2.1 1.9-.5 3.9-.7 6-.7 1.5 0 3.1.1 4.7.2s3.2.3 4.7.5 2.9.5 4.2.8c1.3.3 2.4.7 3.3 1.1l-2.4 3.4zM278.6 503.1c0-4.8.6-8.6 1.7-11.5 1.1-2.9 2.6-5.1 4.6-6.7 1.9-1.6 4.2-2.6 6.7-3.1 2.6-.5 5.3-.8 8.3-.8 3 0 5.7.3 8.3.8 2.6.5 4.8 1.5 6.7 3.1 1.9 1.6 3.4 3.8 4.6 6.7 1.1 2.9 1.7 6.7 1.7 11.5s-.6 8.6-1.7 11.5c-1.1 2.9-2.6 5.1-4.6 6.7-1.9 1.6-4.2 2.6-6.7 3.1-2.6.5-5.3.8-8.3.8-3 0-5.7-.3-8.3-.8-2.6-.5-4.8-1.5-6.7-3.1-1.9-1.6-3.4-3.8-4.6-6.7-1.1-2.9-1.7-6.8-1.7-11.5m21.3-18.3c-2.2 0-4.2.1-6.2.3-2 .2-3.7.9-5.2 2-1.5 1.2-2.7 3-3.6 5.5-.9 2.5-1.4 6-1.4 10.5 0 3 .2 5.6.6 7.7.4 2.1 1 3.8 1.7 5.2.7 1.3 1.6 2.4 2.6 3.1 1 .7 2.1 1.3 3.3 1.6 1.2.3 2.5.5 3.9.6 1.4.1 2.8.1 4.2.1 1.4 0 2.8 0 4.2-.1 1.4-.1 2.7-.3 3.9-.6 1.2-.3 2.3-.9 3.4-1.6 1-.8 1.9-1.8 2.6-3.1.7-1.3 1.3-3.1 1.7-5.2.4-2.1.6-4.7.6-7.7 0-4.5-.5-8.1-1.4-10.5-.9-2.5-2.1-4.3-3.7-5.5-1.5-1.1-3.3-1.8-5.2-2-1.9-.2-3.9-.3-6-.3M339.2 504.3v20.1h-4.7v-42.5H364l-.6 3.8h-24.2v14.8h21.4v3.8zM382.8 524.4v-38.7h-15l.6-3.8h35l-.6 3.8h-15.2v38.7zM449.6 524.4l-9.8-35.2-9.1 35.2h-5.6l-12.3-42.5h4.8l10.2 38.5h.3l9.4-38.5h4.6l10.1 38.5h.4l9.4-38.5h5l-11.8 42.5zM507.6 524.4l-5.4-13.3H483l-5.3 13.3h-4.9l17-42.4h5.7l17 42.4h-4.9zm-12.2-30.5l-2.5-8h-.4l-2.5 8-5.6 13.8H501l-5.6-13.8zM553.6 524.4l-11.2-15.3h-13.6v15.3H524V482h17.2c3.1 0 5.7.2 7.9.5 2.1.3 3.8 1 5.1 1.9 1.3 1 2.2 2.3 2.7 4.1.5 1.8.8 4.1.8 7 0 2.3-.2 4.3-.5 5.9-.3 1.6-.9 2.9-1.7 3.9-.8 1-1.8 1.8-3 2.3-1.3.6-2.8.9-4.7 1.2l11.8 15.5h-6zm-12.3-19.1c2.1 0 3.8-.1 5.3-.2 1.5-.2 2.6-.6 3.5-1.2.9-.6 1.6-1.6 2-2.9.4-1.3.6-3.1.6-5.5s-.2-4.3-.6-5.6c-.4-1.3-1.1-2.3-2-2.9-.9-.6-2.1-1-3.5-1.1-1.5-.1-3.2-.2-5.3-.2h-12.6v19.6h12.6zM572.5 524.4v-42.5h31.7l-.6 3.8h-26.3v14.8h21.3v3.8h-21.3v16.2h26.9l-.6 3.9z"/></g></svg>