<svg xmlns="http://www.w3.org/2000/svg" width="640" height="158" viewBox="0 0 640 158"><g fill="#231F20"><path d="M69.432 94.641h3.791V56.826h-3.791V55.81H87.49c6.337 0 13.187 2.827 13.187 9.394 0 6.055-6.172 8.602-11.603 9.058v.112c7.754 0 13.87 3.622 13.87 10.413 0 6.23-5.551 10.872-16.079 10.872H69.432v-1.018zm12.622-20.494h3.057c3.398 0 7.073-2.206 7.073-7.983 0-6.567-2.32-9.338-7.132-9.338h-2.998v17.321zm0 20.494h2.604c5.718 0 8.772-2.89 8.772-9.793 0-5.999-2.886-9.681-7.925-9.681h-3.451v19.474zM119.692 94.641h4.586V56.826h-4.586V55.81h17.772c6.228 0 16.302 1.016 16.302 9.336 0 6.85-7.586 9.117-13.302 9.511v.115c8.322.732 12.401 3.961 12.508 10.016.114 8.888.909 9.736 3.173 9.736.566 0 1.414-.335 2.039-.731l.395.848c-1.979 1.47-4.754 1.923-6.906 1.923-6.055 0-7.53-4.303-7.53-10.528 0-9.111-2.205-10.471-8.037-10.583h-3.001v19.188h4.756v1.019h-18.17v-1.019zm13.414-20.21h3.169c6.511-.339 8.154-2.83 7.983-9.904 0-7.02-2.206-7.7-7.02-7.7h-4.132v17.604zM172.668 94.641h.739c2.15-.17 3.172-1.532 3.849-3.399l13.135-36.339h.848l15.171 39.738h2.772v1.019H192.31v-1.019h4.529l-4.129-11.773h-10.981l-2.718 7.98c-.17.453-.395 1.078-.395 1.696 0 1.868 1.585 2.097 2.715 2.097h1.585v1.019h-10.248v-1.019zm19.589-12.795l-4.924-14.32h-.114l-5.039 14.32h10.077zM254.107 91.751c-3.284 2.72-8.151 4.813-14.942 4.813-10.36 0-18.906-8.379-18.906-20.152 0-12.681 8.205-21.509 18.226-21.509 5.209 0 9.456 2.999 10.982 2.999 1.189 0 1.698-.734 1.698-1.81h1.02v13.017h-1.02c-.792-6.676-4.982-13.188-12.283-13.188-6.961 0-9.111 8.375-9.111 19.814 0 17.604 3.846 19.812 9.223 19.812 3.733 0 6.623-1.872 6.623-6.06v-6.284h-4.188v-1.02h15.957v1.02h-3.28v8.548zM269.599 94.641h.736c2.149-.17 3.169-1.532 3.852-3.399l13.131-36.339h.849l15.169 39.738h2.774v1.019h-16.87v-1.019h4.53l-4.134-11.773h-10.979l-2.715 7.98c-.17.453-.398 1.078-.398 1.696 0 1.868 1.582 2.097 2.715 2.097h1.589v1.019h-10.249v-1.019zm19.588-12.795l-4.929-14.32h-.113l-5.035 14.32h10.077zM377.283 69.451h-1.019c-.903-5.771-5.719-13.529-12.168-13.529-5.72 0-9.111 5.375-9.111 19.814 0 13.753 2.488 19.812 8.94 19.812 7.304 0 11.549-7.247 12.339-11.832l.339-1.926h.851v13.87h-.851c-.226-.851-.904-2.32-2.093-2.32-1.809 0-4.357 3.225-11.147 3.225-11.212 0-17.89-10.016-17.89-20.152 0-10.076 7.02-21.509 18.623-21.509 4.075 0 7.925 2.886 10.301 2.886 1.189 0 1.814-.507 1.867-1.697h1.019v13.358zM414.244 54.903c10.699 0 18.003 9.736 18.003 20.832.227 10.583-7.987 20.829-18.003 20.829-10.02 0-18.225-10.246-18.001-20.829 0-11.096 7.303-20.832 18.001-20.832zm8.49 20.832c0-17.887-4.128-19.814-8.49-19.814-4.358 0-8.49 1.926-8.49 19.814 0 14.377 1.871 19.812 8.49 19.812 6.623 0 8.49-5.435 8.49-19.812zM468.127 54.903c10.701 0 18.003 9.736 18.003 20.832.227 10.583-7.984 20.829-18.003 20.829s-18.226-10.246-17.999-20.829c0-11.096 7.303-20.832 17.999-20.832zm8.492 20.832c0-17.887-4.134-19.814-8.492-19.814-4.353 0-8.488 1.926-8.488 19.814 0 14.377 1.869 19.812 8.488 19.812 6.625 0 8.492-5.435 8.492-19.812zM503.105 94.641h4.589V56.826h-4.589V55.81h18.513v1.016h-5.096V94.64h6.51c10.018 0 12.282-4.868 12.282-11.437v-1.131h1.018v13.587h-33.228v-1.018z"/></g></svg>